<svg id="Layer_1" data-name="Layer 1" xmlns="http://www.w3.org/2000/svg" xmlns:xlink="http://www.w3.org/1999/xlink" viewBox="0 0 96 100.71"><defs><style>.cls-1{fill:url(#linear-gradient);}.cls-2{fill:#fff;}</style><linearGradient id="linear-gradient" x1="27.02" y1="50.53" x2="74.02" y2="50.53" gradientUnits="userSpaceOnUse"><stop offset="0" stop-color="#91b877"/><stop offset="1" stop-color="#83b983"/></linearGradient></defs><title>re-design</title><circle class="cls-1" cx="50.52" cy="50.53" r="23.5"/><path class="cls-2" d="M35,49.92c.08-.57.15-1.13.24-1.7a14.79,14.79,0,0,1,2.47-6.08,15.42,15.42,0,0,1,14.35-6.65,15,15,0,0,1,7.68,3,15.52,15.52,0,0,1-.09,25,14.43,14.43,0,0,1-4.14,2.15.78.78,0,0,1-1.15-.81c0-1.34,0-2.68,0-4a4.5,4.5,0,0,0-.33-2,11.85,11.85,0,0,0-.62-1c.57-.11,1.18-.18,1.78-.34a6.5,6.5,0,0,0,4-2.49,7.3,7.3,0,0,0,1.16-3.37,8.89,8.89,0,0,0,0-2.74A5.62,5.62,0,0,0,59,46.14a.38.38,0,0,1-.08-.43,5.28,5.28,0,0,0-.2-3.75.35.35,0,0,0-.25-.16,2.68,2.68,0,0,0-1.52.3c-.78.37-1.54.79-2.31,1.18a.75.75,0,0,1-.47.08,14.67,14.67,0,0,0-7.24,0,.67.67,0,0,1-.47-.08,11.16,11.16,0,0,0-3.15-1.42l-.06,0c-.72-.15-.85-.07-1.06.64a5.26,5.26,0,0,0,0,3.3.38.38,0,0,1-.06.31,6.41,6.41,0,0,0-1.42,5.12,8.85,8.85,0,0,0,.86,3.16,5.52,5.52,0,0,0,3.31,2.75,24.61,24.61,0,0,0,2.64.62l.1,0c-.23.41-.46.82-.67,1.23a1.15,1.15,0,0,0-.13.46.55.55,0,0,1-.48.55,3.48,3.48,0,0,1-2.89-.14,3.41,3.41,0,0,1-1.15-1.22,3.28,3.28,0,0,0-1.92-1.57,3,3,0,0,0-1,0c-.2,0-.27.18-.13.35a1.86,1.86,0,0,0,.46.47,4.21,4.21,0,0,1,1.67,2.09,3.64,3.64,0,0,0,.82,1.32,3.51,3.51,0,0,0,2.28.84c.73,0,1.46,0,2.24,0,0,.44,0,1,0,1.46s0,.79,0,1.18a.81.81,0,0,1-1.17.84,15,15,0,0,1-6-3.75A15.67,15.67,0,0,1,35.86,56a15.42,15.42,0,0,1-.79-3.9c0-.12,0-.24,0-.35Q35,50.83,35,49.92Z"/></svg>