<svg id="Layer_1" data-name="Layer 1" xmlns="http://www.w3.org/2000/svg" xmlns:xlink="http://www.w3.org/1999/xlink" viewBox="0 0 96 100.71"><defs><style>.cls-1{fill:url(#linear-gradient);}.cls-2{fill:#fff;}</style><linearGradient id="linear-gradient" x1="24.09" y1="50.58" x2="71.09" y2="50.58" gradientUnits="userSpaceOnUse"><stop offset="0" stop-color="#d4b338"/><stop offset="1" stop-color="#c6b446"/></linearGradient></defs><title>re-design</title><circle class="cls-1" cx="47.59" cy="50.58" r="23.5"/><path class="cls-2" d="M48.57,49c0-.42,0-.89,0-1.35,0-.21-.06-.27-.27-.27H45.09c-.21,0-.27.06-.27.27q0,6,0,12c0,.21,0,.28.27.27h3.28c.37,0,.37,0,.37-.36q0-2.92,0-5.83A5.4,5.4,0,0,1,49,51.93a1.83,1.83,0,0,1,1.3-1.27,3.1,3.1,0,0,1,.54-.08,1.7,1.7,0,0,1,2,1.3,6,6,0,0,1,.18,1.4c0,2.1,0,4.21,0,6.32,0,.32,0,.32.31.32h3.34c.3,0,.3,0,.3-.3q0-3.22,0-6.45a11.73,11.73,0,0,0-.31-3,3.73,3.73,0,0,0-1.89-2.55,4.93,4.93,0,0,0-1.87-.49,4.47,4.47,0,0,0-3.37.91A11.36,11.36,0,0,0,48.57,49Zm-6.12,4.64c0-2,0-4,0-6,0-.21-.06-.28-.27-.27H38.79c-.19,0-.27,0-.26.25q0,6,0,12c0,.19,0,.25.24.25h3.39c.29,0,.29,0,.29-.29Q42.45,56.66,42.45,53.68ZM38.23,43.52a2.27,2.27,0,0,0,2.25,2.28,2.28,2.28,0,1,0,0-4.56A2.28,2.28,0,0,0,38.23,43.52Z"/></svg>